# xmcd CD database file
#
# Track frame offsets:
#	165
#	23347
#	44173
#	63890
#	86653
#	105665
#	126202
#	146278
#	164803
#	190378
#
# Disc length: 2788 seconds
#
# Revision: 0
# Processed by: cddbd v1.5.1PL0 Copyright (c) Steve Scherf et al.
# Submitted via: CDex 1.51
#
DISCID=880ae20a
DTITLE=THE ANDY AZRIN TRIO - plays J-POP HITS
DYEAR=1900
DGENRE=Jazz
TTITLE0=長い間(玉城千春)
TTITLE1=TIME GOES BY(五十嵐充)
TTITLE2=CAN YOU CELEBRATE(KOMURO TETSUYA)
TTITLE3=LOVE IS…(吉田美智子)
TTITLE4=TOMORROW(岡本真夜)
TTITLE5=FIRST LOVE(宇多田ヒカル)
TTITLE6=HOWEVER(TAKURO)
TTITLE7=アジアの純真(奥田民生)
TTITLE8=つつみ込むように(鳥野聡)
TTITLE9=イノセント・ワールド(桜井和寿)
EXTD=
EXTT0=
EXTT1=
EXTT2=
EXTT3=
EXTT4=
EXTT5=
EXTT6=
EXTT7=
EXTT8=
EXTT9=
PLAYORDER=
